<svg xmlns="http://www.w3.org/2000/svg" viewBox="0 0 50 50"><defs><style>.cls-1{fill:#ffffff;}.cls-2{fill:none;}</style></defs><title>AnonimusFeedbackAsset 10color3</title><g id="Layer_2" data-name="Layer 2"><g id="Layer_1-2" data-name="Layer 1"><path class="cls-1" d="M36.25,9.63l-8.49,8.49a.71.71,0,0,0-.2.6,12.22,12.22,0,0,1,.11,1.72V44.8a.69.69,0,0,0,.69.69H38.87a.69.69,0,0,0,.69-.69V19.65q0-6.25-2.22-9.88A.7.7,0,0,0,36.25,9.63Z"/><path class="cls-1" d="M22.33,20.44q0-4.15,2.79-4.16a3,3,0,0,1,1.05.18.66.66,0,0,0,.7-.17L35,8.14a.68.68,0,0,0,0-1c-2.21-1.74-5.27-2.61-9.2-2.61q-7.29,0-11.32,4.08t-4,11.47V44.8a.69.69,0,0,0,.69.69H21.64a.69.69,0,0,0,.69-.69V36.67A.7.7,0,0,1,23,36h2a.69.69,0,0,0,.69-.69V26.12a.7.7,0,0,0-.69-.7H23a.7.7,0,0,1-.7-.69Z"/><rect class="cls-2" width="50" height="50"/></g></g></svg>
